<svg xmlns="http://www.w3.org/2000/svg" width="57.999" height="57.999" viewBox="0 0 57.999 57.999">
  <g id="Group_14501" data-name="Group 14501" transform="translate(-128 -9546.656)">
    <circle id="Ellipse_36" data-name="Ellipse 36" cx="28.999" cy="28.999" r="28.999" transform="translate(128 9546.656)" fill="#f2f6fc"/>
    <g id="technology" transform="translate(138.908 9557.869)">
      <g id="Page-1_17_" transform="translate(0 0)">
        <g id="_x30_19---Technology-Engineering" transform="translate(0 0)">
          <path id="Shape_133_" d="M1.01,26.557l2.361.387a14.542,14.542,0,0,0,2.1,5.07l-1.4,1.952a1.1,1.1,0,0,0,.012,1.324,16.172,16.172,0,0,0,1.122,1.236c.4.4.81.767,1.233,1.123a1.1,1.1,0,0,0,1.325.012l1.95-1.4a14.515,14.515,0,0,0,5.066,2.1l.386,2.363a1.093,1.093,0,0,0,.944.92c.336.038.675.061,1.021.079a.618.618,0,0,0,.648-.612V36.2a.617.617,0,0,0-.6-.613,11.662,11.662,0,0,1,0-23.293.617.617,0,0,0,.6-.613V6.77a.617.617,0,0,0-.646-.613q-.517.021-1.022.072a1.107,1.107,0,0,0-.944.927l-.386,2.363a14.529,14.529,0,0,0-5.066,2.105l-1.95-1.4a1.1,1.1,0,0,0-1.325.012A16.316,16.316,0,0,0,5.211,11.36,14.157,14.157,0,0,0,4.089,12.6a1.1,1.1,0,0,0-.012,1.326l1.4,1.952a14.543,14.543,0,0,0-2.1,5.068l-2.361.386a1.094,1.094,0,0,0-.92.945,15.187,15.187,0,0,0,0,3.312,1.109,1.109,0,0,0,.92.972Z" transform="translate(0.001 -6.156)" fill="#26dfad"/>
          <path id="Shape_132_" d="M153.171,151.126a9.2,9.2,0,0,0,0,18.362.563.563,0,0,0,.586-.568V151.694a.563.563,0,0,0-.586-.568Z" transform="translate(-135.973 -142.521)" fill="#26dfad"/>
          <path id="Shape_131_" d="M323.356,34.685h-3.067v1.227h3.067a1.845,1.845,0,0,0,1.84-1.84V30.279a1.84,1.84,0,1,0-1.227,0v3.793A.613.613,0,0,1,323.356,34.685Z" transform="translate(-301.278 -25.484)" fill="#ecb74b"/>
          <path id="Shape_130_" d="M320.288,203.714h6.133a.613.613,0,1,0,0-1.227h-6.133Z" transform="translate(-301.277 -190.834)" fill="#ecb74b"/>
          <path id="Shape_129_" d="M320.288,431.033h3.067a.613.613,0,0,1,.613.613v3.793a1.84,1.84,0,1,0,1.227,0v-3.793a1.845,1.845,0,0,0-1.84-1.84h-3.067v1.227Z" transform="translate(-301.277 -404.66)" fill="#ecb74b"/>
          <path id="Shape_128_" d="M329.488,347.145h-9.2v1.227h9.2a.613.613,0,0,1,.613.613v3.179a1.84,1.84,0,1,0,1.227,0v-3.179A1.845,1.845,0,0,0,329.488,347.145Z" transform="translate(-301.277 -326.905)" fill="#ecb74b"/>
          <path id="Shape_127_" d="M335.621,274.816a1.84,1.84,0,0,0-1.727,1.227H320.288v1.227h13.606a1.837,1.837,0,1,0,1.727-2.453Z" transform="translate(-301.277 -258.869)" fill="#ecb74b"/>
          <path id="Shape_126_" d="M327.034,389.088a.613.613,0,0,0-.613-.613h-6.133V389.7h6.133A.613.613,0,0,0,327.034,389.088Z" transform="translate(-301.277 -365.782)" fill="#ecb74b"/>
          <path id="Shape_125_" d="M331.327,126.452v-3.179a1.84,1.84,0,1,0-1.227,0v3.179a.613.613,0,0,1-.613.613h-9.2v1.227h9.2A1.846,1.846,0,0,0,331.327,126.452Z" transform="translate(-301.276 -112.959)" fill="#ecb74b"/>
        </g>
      </g>
    </g>
  </g>
</svg>
