<svg id="Group_14517" data-name="Group 14517" xmlns="http://www.w3.org/2000/svg" width="50.598" height="50.599" viewBox="0 0 50.598 50.599">
  <circle id="Ellipse_36" data-name="Ellipse 36" cx="25.299" cy="25.299" r="25.299" transform="translate(0)" fill="#f2f6fc"/>
  <g id="cellphone_1_" data-name="cellphone (1)" transform="translate(15.497 9.109)">
    <path id="Path_27976" data-name="Path 27976" d="M225.427,119.213a2.213,2.213,0,1,0-2.213,2.213A2.216,2.216,0,0,0,225.427,119.213Z" transform="translate(-213.411 -109.601)" fill="#26dfad"/>
    <path id="Path_27977" data-name="Path 27977" d="M120.6,24.158V3.478A3.482,3.482,0,0,0,117.126,0H104.478A3.482,3.482,0,0,0,101,3.478v20.68Zm-7.273-3.794h-5.059a.949.949,0,1,1,0-1.9h5.059a.949.949,0,1,1,0,1.9Zm-7.589-11.7h1.06a4.087,4.087,0,0,1,.5-1.208l-.75-.75A.949.949,0,1,1,107.9,5.364l.75.75a4.087,4.087,0,0,1,1.208-.5V4.553a.949.949,0,0,1,1.9,0v1.06a4.087,4.087,0,0,1,1.208.5l.75-.75a.949.949,0,1,1,1.342,1.342l-.75.75a4.087,4.087,0,0,1,.5,1.208h1.06a.949.949,0,0,1,0,1.9H114.8a4.087,4.087,0,0,1-.5,1.208l.75.75a.949.949,0,1,1-1.341,1.342l-.75-.75a4.087,4.087,0,0,1-1.208.5v1.06a.949.949,0,0,1-1.9,0v-1.06a4.087,4.087,0,0,1-1.208-.5l-.75.75a.949.949,0,0,1-1.341-1.342l.75-.75a4.087,4.087,0,0,1-.5-1.208h-1.06a.949.949,0,0,1,0-1.9Z" transform="translate(-101 0)" fill="#26dfad"/>
    <path id="Path_27978" data-name="Path 27978" d="M101,412v2.846a3.482,3.482,0,0,0,3.478,3.478h12.648a3.482,3.482,0,0,0,3.478-3.478V412Zm11.067,4.111h-2.53a.949.949,0,1,1,0-1.9h2.53a.949.949,0,1,1,0,1.9Z" transform="translate(-101 -385.945)" fill="#ecb74b"/>
  </g>
</svg>
