<svg xmlns="http://www.w3.org/2000/svg" width="49.656" height="49.656" viewBox="0 0 49.656 49.656">
  <g id="Group_14521" data-name="Group 14521" transform="translate(-732 -9954.682)">
    <circle id="Ellipse_36" data-name="Ellipse 36" cx="24.828" cy="24.828" r="24.828" transform="translate(732 9954.682)" fill="#f2f6fc"/>
    <g id="work" transform="translate(740.312 9962.085)">
      <path id="Path_27993" data-name="Path 27993" d="M75.045,359.638v9.817H98.222v-9.817L87.6,361.569v2.091H85.668v-2.091Z" transform="translate(-70.214 -335.576)" fill="#26dfad"/>
      <path id="Path_27994" data-name="Path 27994" d="M91.462,183.455l-.534-.267a10.932,10.932,0,0,0-4.295-1.068,10.932,10.932,0,0,0-4.295,1.068l-.534.267v2.528h-6.76v5.6l11.588,2.107,11.588-2.107v-5.6h-6.76Zm-1.931,2.528H83.736v-1.3a6.947,6.947,0,0,1,5.794,0Z" transform="translate(-70.214 -169.487)" fill="#26dfad"/>
      <path id="Path_27995" data-name="Path 27995" d="M1.991,70.888l3.222-1.009,3.222,1.009.036-3.376,1.955-2.753-3.2-1.078-2.014-2.71L3.2,63.681,0,64.759l1.955,2.753Z" transform="translate(0 -56.137)" fill="#ecb74b"/>
      <path id="Path_27996" data-name="Path 27996" d="M179.277.971l-2.014,2.71-3.2,1.078,1.955,2.753.036,3.376,3.222-1.009,3.222,1.009.036-3.376,1.955-2.753-3.2-1.078Z" transform="translate(-162.857 0)" fill="#ecb74b"/>
      <path id="Path_27997" data-name="Path 27997" d="M356.341,60.971l-2.014,2.71-3.2,1.078,1.955,2.753.036,3.376,3.222-1.009,3.222,1.009.036-3.376,1.955-2.753-3.2-1.078Z" transform="translate(-328.521 -56.137)" fill="#ecb74b"/>
    </g>
  </g>
</svg>
