<svg xmlns="http://www.w3.org/2000/svg" width="49.656" height="49.656" viewBox="0 0 49.656 49.656">
  <g id="Group_14524" data-name="Group 14524" transform="translate(-1033 -9954.682)">
    <circle id="Ellipse_36" data-name="Ellipse 36" cx="24.828" cy="24.828" r="24.828" transform="translate(1033 9954.682)" fill="#f2f6fc"/>
    <g id="add" transform="translate(1045.473 9967.154)">
      <g id="Group_14523" data-name="Group 14523">
        <g id="Group_14522" data-name="Group 14522">
          <path id="Path_27998" data-name="Path 27998" d="M8.986,0H2.247A2.249,2.249,0,0,0,0,2.247v6.74a2.249,2.249,0,0,0,2.247,2.247h6.74a2.249,2.249,0,0,0,2.247-2.247V2.247A2.249,2.249,0,0,0,8.986,0Z" fill="#26dfad"/>
          <path id="Path_27999" data-name="Path 27999" d="M264.986,0h-6.74A2.249,2.249,0,0,0,256,2.247v6.74a2.249,2.249,0,0,0,2.247,2.247h6.74a2.249,2.249,0,0,0,2.247-2.247V2.247A2.249,2.249,0,0,0,264.986,0Z" transform="translate(-242.521)" fill="#26dfad"/>
          <path id="Path_28000" data-name="Path 28000" d="M8.986,256H2.247A2.249,2.249,0,0,0,0,258.247v6.74a2.249,2.249,0,0,0,2.247,2.247h6.74a2.249,2.249,0,0,0,2.247-2.247v-6.74A2.249,2.249,0,0,0,8.986,256Z" transform="translate(0 -242.521)" fill="#ecb74b"/>
          <path id="Path_28001" data-name="Path 28001" d="M304.844,300.913h-1.685v-1.685a.561.561,0,0,0-.562-.562h-1.123a.561.561,0,0,0-.562.562v1.685h-1.685a.561.561,0,0,0-.562.562V302.6a.561.561,0,0,0,.562.562h1.685v1.685a.561.561,0,0,0,.562.562H302.6a.561.561,0,0,0,.562-.562v-1.685h1.685a.561.561,0,0,0,.562-.562v-1.123A.561.561,0,0,0,304.844,300.913Z" transform="translate(-282.94 -282.94)" fill="#ecb74b"/>
        </g>
      </g>
    </g>
  </g>
</svg>
